<?xml version="1.0" encoding="utf-8" ?>
<svg width="250" height="300" xmlns="http://www.w3.org/2000/svg" xmlns:xlink="http://www.w3.org/1999/xlink" xmlns:ev="http://www.w3.org/2001/xml-events" baseProfile="full" version="1.1"><defs /><rect fill="white" x="0" y="0" width="250" height="300" /><line stroke="darkgray" stroke-width="2" x1="30" y1="55.0" x2="212.5" y2="55.0" /><line stroke="darkgray" stroke-width="2" x1="30" y1="99.0" x2="212.5" y2="99.0" /><line stroke="darkgray" stroke-width="2" x1="30" y1="143.0" x2="212.5" y2="143.0" /><line stroke="darkgray" stroke-width="2" x1="30" y1="187.0" x2="212.5" y2="187.0" /><line stroke="darkgray" stroke-width="2" x1="30" y1="231.0" x2="212.5" y2="231.0" /><line stroke="darkgray" stroke-width="2" x1="30" y1="275.0" x2="212.5" y2="275.0" /><circle fill="black" cx="22" cy="121.0" r="2" /><circle fill="black" cx="22" cy="253.0" r="2" /><text font-family="Lato" font-size="15" font-style="italic" font-weight="bold" fill="dimgray" text-anchor="start" x="214.5" y="58.0">5fr</text><line stroke="darkslategray" stroke-width="3.0" x1="31.5" y1="45.0" x2="31.5" y2="285.0" /><line stroke="darkslategray" stroke-width="2.5" x1="90.83333333333334" y1="45.0" x2="90.83333333333334" y2="285.0" /><line stroke="darkslategray" stroke-width="2.0" x1="151.66666666666669" y1="45.0" x2="151.66666666666669" y2="285.0" /><text font-family="Lato" font-size="15" font-weight="bold" fill="steelblue" text-anchor="middle" alignment-baseline="middle" x="151.66666666666669" y="30.0">O</text><line stroke="darkslategray" stroke-width="1.5" x1="211.75" y1="45.0" x2="211.75" y2="285.0" /><text font-family="Lato" font-size="15" font-weight="bold" fill="steelblue" text-anchor="middle" alignment-baseline="middle" x="211.75" y="30.0">O</text><circle fill="steelblue" stroke="darkslategray" stroke-width="2" cx="30.0" cy="77.0" r="12" /><text font-family="Lato" font-size="15" font-weight="bold" fill="white" text-anchor="middle" alignment-baseline="central" x="30.0" y="77.0">1</text><circle fill="steelblue" stroke="darkslategray" stroke-width="2" cx="90.83333333333334" cy="77.0" r="12" /><text font-family="Lato" font-size="15" font-weight="bold" fill="white" text-anchor="middle" alignment-baseline="central" x="90.83333333333334" y="77.0">2</text></svg>